<?xml version="1.0" standalone="no"?>
<!DOCTYPE svg PUBLIC "-//W3C//DTD SVG 20010904//EN"
 "http://www.w3.org/TR/2001/REC-SVG-20010904/DTD/svg10.dtd">
<svg version="1.0" xmlns="http://www.w3.org/2000/svg"
 width="572.000000pt" height="555.000000pt" viewBox="0 0 572.000000 555.000000"
 preserveAspectRatio="xMidYMid meet">

<g transform="translate(0.000000,555.000000) scale(0.100000,-0.100000)"
fill="#000000" stroke="none">
<path d="M574 5361 c-49 -30 -82 -108 -94 -221 -14 -140 -13 -200 4 -200 8 0
17 4 21 9 3 5 36 -4 73 -21 49 -23 86 -32 137 -35 40 -2 72 -8 77 -16 24 -39
40 -164 36 -293 -2 -89 0 -133 7 -131 24 7 55 94 61 172 6 71 3 89 -20 155
-62 174 -60 168 -48 195 9 19 19 25 42 25 16 0 30 -4 30 -9 0 -5 8 -12 19 -16
10 -3 25 -23 34 -45 12 -31 21 -40 39 -40 22 0 25 6 35 78 14 92 69 252 88
252 12 0 22 -11 83 -90 18 -23 31 -30 58 -30 33 0 34 1 34 40 0 34 -4 41 -25
46 -14 4 -29 4 -32 0 -7 -6 -98 113 -116 152 -14 31 -33 28 -46 -8 -5 -16 -17
-30 -26 -30 -12 0 -14 -4 -5 -19 11 -22 6 -43 -22 -83 -20 -30 -24 -64 -6 -70
6 -2 8 -10 4 -16 -21 -34 -76 52 -76 118 0 17 -2 30 -5 30 -20 0 -59 -30 -86
-66 -32 -42 -35 -44 -86 -44 -38 0 -55 -4 -59 -15 -10 -25 -23 -7 -44 65 -14
47 -29 76 -47 90 l-26 21 21 29 c12 16 22 32 22 35 0 11 -26 4 -56 -14z"/>
<path d="M155 4368 c-38 -102 -35 -98 -89 -119 -27 -10 -54 -23 -60 -29 -18
-18 17 -40 89 -55 82 -18 146 -54 174 -99 16 -26 29 -34 59 -38 20 -3 72 -20
115 -37 43 -17 92 -33 108 -36 37 -7 75 -30 111 -70 l27 -30 3 65 c3 99 1 109
-26 144 -31 41 -35 65 -14 79 26 17 67 -7 85 -50 12 -30 14 -65 11 -160 -3
-109 -2 -123 12 -123 13 0 22 23 38 103 38 176 31 221 -58 357 -33 50 -60 95
-60 100 0 5 -13 5 -30 -1 -25 -9 -40 -6 -95 20 -36 16 -65 25 -65 20 0 -6 16
-26 35 -46 40 -41 44 -58 15 -66 -15 -4 -20 -14 -20 -39 0 -38 -15 -58 -43
-58 -10 0 -21 -8 -24 -19 -3 -11 -13 -19 -26 -18 -12 0 -30 -3 -39 -7 -20 -9
-25 0 -55 99 l-18 60 -76 3 -77 3 21 49 c15 36 18 53 10 61 -8 8 -18 -10 -38
-63z"/>
</g>
</svg>
