<svg width="24" height="19" viewBox="0 0 24 19" fill="none" xmlns="http://www.w3.org/2000/svg">
<path d="M0 2.21968C0 0.993783 0.993783 0 2.21968 0H7.39892C8.62481 0 9.61859 0.993783 9.61859 2.21968V9.61859H2.21968C0.993783 9.61859 0 8.62481 0 7.39892V2.21968Z" fill="#722C8D"/>
<path d="M13.3181 2.21968C13.3181 0.993783 14.3118 0 15.5377 0H20.717C21.9429 0 22.9366 0.993783 22.9366 2.21968V9.61859H15.5377C14.3118 9.61859 13.3181 8.62481 13.3181 7.39892V2.21968Z" fill="#722C8D"/>
<path d="M8.07956 6.28901L8.07956 11.7714C8.07956 14.3417 6.64229 16.6108 4.09002 16.9146C3.7342 16.9569 3.35093 16.9946 2.93883 17.0259" stroke="#722C8D" stroke-width="2.95957" stroke-linecap="round" stroke-linejoin="round"/>
<path d="M21.3977 6.28901L21.3977 11.7714C21.3977 14.3417 19.9604 16.6108 17.4081 16.9146C17.0523 16.9569 16.669 16.9946 16.2569 17.0259" stroke="#722C8D" stroke-width="2.95957" stroke-linecap="round" stroke-linejoin="round"/>
</svg>
