<svg width="24" height="22" viewBox="0 0 24 22" fill="none" xmlns="http://www.w3.org/2000/svg">
<path d="M23.306 19.6078C23.306 20.8337 22.3122 21.8275 21.0863 21.8275H15.9071C14.6812 21.8275 13.6874 20.8337 13.6874 19.6078V10.6531H21.0863C22.3122 10.6531 23.306 11.6469 23.306 12.8728V19.6078Z" fill="#722C8D"/>
<path d="M9.98795 19.6078C9.98795 20.8337 8.99416 21.8275 7.76827 21.8275H2.58903C1.36314 21.8275 0.369354 20.8337 0.369354 19.6078V10.6531H7.76827C8.99416 10.6531 9.98795 11.6469 9.98795 12.8728V19.6078Z" fill="#722C8D"/>
<path d="M15.2264 14.5211L15.2264 7.07515C15.2264 4.72762 16.3904 2.64392 18.6327 2.26638C19.1433 2.18041 19.7196 2.10491 20.3671 2.04784" stroke="#722C8D" stroke-width="2.95957" stroke-linecap="round" stroke-linejoin="round"/>
<path d="M1.90835 14.5211L1.90835 7.07515C1.90836 4.72762 3.07239 2.64392 5.31466 2.26638C5.82522 2.18041 6.40156 2.10491 7.04909 2.04784" stroke="#722C8D" stroke-width="2.95957" stroke-linecap="round" stroke-linejoin="round"/>
</svg>
