<svg width="21" height="21" viewBox="0 0 21 21" fill="none" xmlns="http://www.w3.org/2000/svg">
<g clip-path="url(#clip0_201_14)">
<path d="M18.8718 0H2.35897C1.05615 0 0 1.05615 0 2.35897V18.8718C0 20.1746 1.05615 21.2308 2.35897 21.2308H18.8718C20.1746 21.2308 21.2308 20.1746 21.2308 18.8718V2.35897C21.2308 1.05615 20.1746 0 18.8718 0Z" fill="white"/>
<path fill-rule="evenodd" clip-rule="evenodd" d="M17.8292 3.9564V6.7018L16.1998 6.70604C14.9226 6.70604 14.6765 7.31283 14.6765 8.19968V10.1643H17.7189L17.3243 13.2364H14.6765V21.2308H11.5029V13.2364H8.84619V10.1643H11.5029V7.8984C11.5029 5.26757 13.1064 3.83334 15.4572 3.83334C16.5779 3.83334 17.5449 3.91821 17.8292 3.9564Z" fill="#722C8D"/>
</g>
<rect x="0.5" y="0.5" width="20.2308" height="20.2308" rx="3.5" stroke="#722C8D"/>
<defs>
<clipPath id="clip0_201_14">
<rect width="21.2308" height="21.2308" rx="4" fill="white"/>
</clipPath>
</defs>
</svg>
