<?xml version="1.0" encoding="utf-8"?>
<!-- Generator: Adobe Illustrator 23.0.3, SVG Export Plug-In . SVG Version: 6.00 Build 0)  -->
<svg version="1.1" id="Capa_1" xmlns="http://www.w3.org/2000/svg" xmlns:xlink="http://www.w3.org/1999/xlink" x="0px" y="0px"
	 viewBox="0 0 512 512" style="enable-background:new 0 0 512 512;" xml:space="preserve">
<style type="text/css">
	.st0{fill:url(#SVGID_1_);}
	.st1{fill:url(#SVGID_2_);}
	.st2{fill:url(#SVGID_3_);}
	.st3{fill:url(#SVGID_4_);}
	.st4{fill:url(#SVGID_5_);}
	.st5{fill:url(#SVGID_6_);}
	.st6{fill:url(#SVGID_7_);}
	.st7{fill:url(#SVGID_8_);}
	.st8{fill:url(#SVGID_9_);}
	.st9{fill:url(#SVGID_10_);}
	.st10{fill:url(#SVGID_11_);}
	.st11{fill:url(#SVGID_12_);}
	.st12{fill:url(#SVGID_13_);}
	.st13{fill:url(#SVGID_14_);}
	.st14{fill:url(#SVGID_15_);}
	.st15{fill:url(#SVGID_16_);}
	.st16{fill:url(#SVGID_17_);}
	.st17{fill:url(#SVGID_18_);}
	.st18{fill:url(#SVGID_19_);}
	.st19{fill:url(#SVGID_20_);}
	.st20{fill:url(#SVGID_21_);}
	.st21{fill:url(#SVGID_22_);}
	.st22{fill:url(#SVGID_23_);}
	.st23{fill:url(#SVGID_24_);}
	.st24{fill:url(#SVGID_25_);}
	.st25{fill:#9D9AE8;}
	.st26{fill:#FCC69D;}
	.st27{fill:#2D2A2B;}
	.st28{fill:#93CE92;}
	.st29{fill:#253E59;}
	.st30{fill:#DAD0D3;}
	.st31{fill:#FCFCFC;}
	.st32{fill:#F9F9F9;}
	.st33{fill:#ED4D67;}
	.st34{fill:#A30D2A;}
	.st35{fill:url(#SVGID_26_);}
	.st36{fill:url(#SVGID_27_);}
	.st37{fill:url(#SVGID_28_);}
	.st38{fill:url(#SVGID_29_);}
</style>
<path d="M470.8,179c-7-13.9-19.4-20-34.8-18.1c-6.6,0.8-11.1,1-16-5.1c-8.5-10.7-20.4-13.5-33.7-9.2c-4.1,1.3-7.2,3.4-12.5-0.5
	c-18.5-13.7-28-12.4-44.6,4c-5.2,5.1-11.4,9.6-15.2,15.5c-17.5,26.8-43.5,28.2-71.1,24.4c-8.7-1.2-17.3-3.4-25.7-5.9
	c-42.1-12.9-78.8-1.1-112.2,24.7c-7.3,5.6-13.6,8.8-23.3,9.1c-21.2,0.6-33.2,16.5-41.8,33.1c-8,15.5,0.7,28.5,12.3,39.9
	c23.5,22.7,46.8,45.7,69.4,69.3c11.5,11.9,24.5,20.3,39.8,12.1c16.2-8.7,33.1-20.2,32.8-41.7c-0.2-13.5,5.7-15.9,16.4-15.8
	c22.3,0.1,44.6,0,67,0c0,0,0-0.1,0-0.1c21.8,0,43.6,0.1,65.4,0c16.1-0.1,31.1-4.5,42.7-15.9c26.7-26.1,53.1-52.6,79.2-79.3
	C476.4,207.6,478.1,193.4,470.8,179z M370.6,180c6.1-4.8,10.7-11.4,16.8-16.1c8.7-6.6,23.3-2,24.1,7c0.2,4.2-3,6.3-5.5,8.8
	c-7.6,7.7-15.5,15.2-22.8,23.3c-5.1,5.6-7.3,3.7-13-0.4C357.8,193.7,360.7,187.8,370.6,180z M345.5,156.4c5.3-5.1,11.1-5.2,16.4,0
	c6.6,6.4,0,9.9-3.6,13.7c-11.7,12.1-22,27.3-45.1,18.1C324.4,177,334.8,166.6,345.5,156.4z M156.7,357.1c-7.8,5.5-15.4,0.4-21.8-6
	c-24.4-24.7-49.1-49-73.5-73.7c-12.6-12.7-11.8-18.4,3.4-33.5c14.3-14.1,20-14.8,32.2-2.6c24.6,24.4,49.1,48.9,73.5,73.5
	c4,4,8.7,7.7,8.6,14.5C177.2,342.8,166.5,350.1,156.7,357.1z M455.1,206.5c-5.8,7.3-12.8,13.5-19.4,20.1
	c-18.3,18.4-36.8,36.5-54.9,55.1c-11.6,11.9-25.2,17.5-41.7,17.2c-21.3-0.3-42.5-0.1-63.8-0.1c-20.2,0-40.4,0-60.7,0
	c-3.6,0-8.1-1.2-10.7,0.5c-19.1,11.7-28.8-2.4-39.9-13.6c-16.7-17-33.6-33.9-50.6-50.6c-4-3.9-7.6-7.1-1.2-12.1
	c24.4-19.2,51.8-35.1,82.8-27c45.1,11.8,90.4,9.9,135.8,10.3c23,0.2,32.7,5.9,32.5,19.5c-0.1,13.4-9.6,18.8-33.1,18.8
	c-16.6,0-33.2-0.1-49.8,0.1c-6.1,0-14-1-13.8,8.1c0.2,7.6,7.2,7.5,13,7.5c21.3,0,42.5,0.1,63.8,0c16.2-0.1,27.2-8.2,34-22.8
	c11.7-25.3,34.6-40.4,54-58.6c6.6-6.2,15.9-3.2,22.3,3.7C461,190,461.3,198.7,455.1,206.5z"/>
</svg>
