<svg width="22" height="22" viewBox="0 0 22 22" fill="none" xmlns="http://www.w3.org/2000/svg">
<g clip-path="url(#clip0_201_10)">
<path d="M15.2596 0.769226H5.97115C2.65385 0.769226 0 3.42307 0 6.74038V10.7211V16.0288C0 19.3461 2.65385 22 5.97115 22H15.2596C18.5769 22 21.2308 19.3461 21.2308 16.0288V10.7211V6.74038C21.2308 3.42307 18.5769 0.769226 15.2596 0.769226ZM10.6154 7.40384C12.8048 7.40384 14.5962 9.19519 14.5962 11.3846C14.5962 13.574 12.8048 15.3654 10.6154 15.3654C8.42596 15.3654 6.63462 13.574 6.63462 11.3846C6.63462 9.19519 8.42596 7.40384 10.6154 7.40384ZM14.5962 5.41346C14.5962 4.68365 15.1933 4.08653 15.9231 4.08653C16.6529 4.08653 17.25 4.68365 17.25 5.41346C17.25 6.14326 16.6529 6.74038 15.9231 6.74038C15.1933 6.74038 14.5962 6.14326 14.5962 5.41346Z" fill="white"/>
<circle cx="10.6154" cy="11.3846" r="3.98077" fill="#722C8D"/>
<circle cx="15.9231" cy="5.31617" r="1.32692" fill="#722C8D"/>
</g>
<rect x="0.5" y="1.26923" width="20.2308" height="20.2308" rx="4.5" stroke="#722C8D" stroke-miterlimit="1.51733"/>
<defs>
<clipPath id="clip0_201_10">
<rect y="0.769226" width="21.2308" height="21.2308" rx="5" fill="white"/>
</clipPath>
</defs>
</svg>
