<?xml version="1.0" standalone="no"?>
<!DOCTYPE svg PUBLIC "-//W3C//DTD SVG 20010904//EN"
 "http://www.w3.org/TR/2001/REC-SVG-20010904/DTD/svg10.dtd">
<svg version="1.0" xmlns="http://www.w3.org/2000/svg"
 width="572.000000pt" height="555.000000pt" viewBox="0 0 572.000000 555.000000"
 preserveAspectRatio="xMidYMid meet">
<metadata>
Created by potrace 1.16, written by Peter Selinger 2001-2019
</metadata>
<g transform="translate(0.000000,555.000000) scale(0.100000,-0.100000)"
fill="#000000" stroke="none">
<path d="M570 5367 c-70 -47 -100 -140 -100 -316 l0 -113 31 6 c22 4 45 -2 82
-21 36 -18 75 -28 127 -32 l75 -6 19 -55 c17 -46 20 -81 19 -222 0 -93 3 -168
7 -168 14 0 48 47 60 83 6 20 12 79 13 130 1 85 -1 99 -36 182 -20 49 -37 97
-37 106 0 77 80 60 120 -24 12 -25 21 -32 45 -32 29 0 30 1 38 65 9 76 67 252
84 257 7 3 27 -18 45 -46 34 -52 62 -71 103 -71 23 0 25 4 25 45 0 46 -22 71
-52 60 -13 -5 -69 64 -121 148 -20 30 -33 28 -47 -9 -5 -13 -16 -24 -24 -24
-11 0 -13 -8 -9 -34 4 -25 -1 -45 -22 -80 -26 -45 -27 -48 -10 -66 17 -19 17
-20 -3 -20 -26 0 -50 42 -59 105 -3 25 -8 45 -10 45 -17 0 -64 -35 -91 -69
-30 -38 -37 -41 -82 -41 -35 0 -52 -5 -58 -16 -12 -21 -15 -15 -41 73 -15 51
-28 76 -44 84 -12 7 -24 13 -26 15 -2 1 7 17 19 33 20 28 20 51 1 51 -4 0 -23
-10 -41 -23z"/>
<path d="M152 4388 c-11 -29 -24 -66 -29 -81 -7 -22 -21 -33 -63 -50 -49 -20
-55 -25 -55 -51 0 -28 3 -30 70 -43 87 -18 159 -56 186 -99 16 -26 30 -35 69
-43 28 -6 76 -22 108 -35 31 -13 85 -32 120 -41 50 -14 68 -25 93 -56 17 -22
35 -39 40 -39 5 0 9 42 9 93 -1 86 -2 94 -30 131 -35 46 -38 66 -11 66 63 0
85 -44 84 -170 0 -52 -3 -110 -7 -127 -7 -30 -6 -33 17 -33 24 0 27 6 46 89
26 109 27 222 3 272 -9 20 -42 75 -72 121 -54 84 -56 85 -91 80 -25 -3 -50 3
-87 22 -28 14 -54 26 -57 26 -16 0 -1 -33 25 -57 32 -28 39 -57 15 -67 -8 -3
-15 -18 -15 -33 0 -37 -10 -50 -43 -58 -15 -4 -31 -14 -36 -22 -4 -8 -23 -15
-42 -16 -32 -2 -35 0 -47 43 -7 25 -20 60 -27 78 -15 32 -15 32 -85 32 -75 0
-81 5 -55 50 8 14 14 35 15 48 0 40 -27 23 -48 -30z"/>
</g>
</svg>
