<svg xmlns="http://www.w3.org/2000/svg" viewBox="0 0 623.62 340.16"><defs><style>.cls-1{fill:#fff;}</style></defs><title>LOGO_HORIZ_BRANCO</title><g id="VETORES"><path class="cls-1" d="M63.06,295.78H54l-1.8,5.36H48.57l8.13-22.53a4.76,4.76,0,0,1,2-.47,2.69,2.69,0,0,1,2.62,2.08l7.53,20.92h-4Zm-1-2.93-3.56-10.58L55,292.85Z"/><path class="cls-1" d="M80,301.46c-6.21,0-9.86-4.32-9.86-11.66s3.56-11.66,9.54-11.66a8,8,0,0,1,7.35,4l-3.44,1.42a4.39,4.39,0,0,0-3.91-2.4c-3.59,0-5.7,3.22-5.7,8.64s2.37,8.63,6.34,8.63a9.26,9.26,0,0,0,5.82-1.95l1.52,2.61A12.36,12.36,0,0,1,80,301.46Z"/><path class="cls-1" d="M89.46,289.8c0-7.34,3.91-11.66,10.52-11.66s10.53,4.32,10.53,11.66S106.6,301.46,100,301.46,89.46,297.14,89.46,289.8Zm17.17,0c0-5.42-2.49-8.64-6.68-8.64s-6.68,3.22-6.68,8.64,2.49,8.63,6.68,8.63S106.63,295.22,106.63,289.8Z"/><path class="cls-1" d="M127.3,298.12v3H114.7V278.61a3.41,3.41,0,0,1,1.67-.47,2,2,0,0,1,2,2.21v17.77Z"/><path class="cls-1" d="M148.72,280.35v20.79H145V291.09H134.36v10.05h-3.72V278.61a3.41,3.41,0,0,1,1.67-.47,2,2,0,0,1,2.05,2.21v7.81H145v-9.55a3.38,3.38,0,0,1,1.67-.47A2,2,0,0,1,148.72,280.35Z"/><path class="cls-1" d="M167.78,298.21v2.93H154.05V278.45h13.39v2.93h-9.67V288h8.57v2.93h-8.57v7.28Z"/><path class="cls-1" d="M187.16,301.14l-11.78-16.23.16,16.23H172V278.61a2.57,2.57,0,0,1,1.49-.47,2.79,2.79,0,0,1,2.33,1.48l10.87,15-.16-16.2h3.56v22.69Z"/><path class="cls-1" d="M213.18,289.8c0,7.34-4.34,11.66-11.68,11.66-1.86,0-4.86-.19-6.09-.32V278.45c1.26-.12,3.88-.31,6.09-.31C208.84,278.14,213.18,282.46,213.18,289.8Zm-3.87,0c0-5.48-2.9-8.73-7.85-8.73-.66,0-1.6.06-2.33.13v17.23c.73.06,1.64.09,2.33.09C206.41,298.52,209.31,295.28,209.31,289.8Z"/><path class="cls-1" d="M216.21,289.8c0-7.34,3.9-11.66,10.52-11.66s10.52,4.32,10.52,11.66-3.9,11.66-10.52,11.66S216.21,297.14,216.21,289.8Zm17.17,0c0-5.42-2.49-8.64-6.68-8.64S220,284.38,220,289.8s2.49,8.63,6.68,8.63S233.38,295.22,233.38,289.8Z"/><path class="cls-1" d="M265.74,278.77l-8,22.37h-3.94l-8.09-22.37a3.09,3.09,0,0,1,1.92-.63,2.32,2.32,0,0,1,2.52,1.89l4.69,13.61,1.23,4,1.2-4.09,5.07-15.41Z"/><path class="cls-1" d="M268.89,301.14V278.61a3.38,3.38,0,0,1,1.66-.47,2,2,0,0,1,2.05,2.21v20.79Z"/><path class="cls-1" d="M295.67,289.8c0,7.34-4.35,11.66-11.69,11.66-1.86,0-4.86-.19-6.08-.32V278.45c1.26-.12,3.87-.31,6.08-.31C291.32,278.14,295.67,282.46,295.67,289.8Zm-3.88,0c0-5.48-2.9-8.73-7.84-8.73-.67,0-1.61.06-2.34.13v17.23c.73.06,1.64.09,2.34.09C288.89,298.52,291.79,295.28,291.79,289.8Z"/><path class="cls-1" d="M311.32,295.78h-9l-1.79,5.36h-3.66L305,278.61a4.77,4.77,0,0,1,2-.47,2.68,2.68,0,0,1,2.61,2.08l7.53,20.92h-4Zm-1-2.93-3.56-10.58-3.53,10.58Z"/><path class="cls-1" d="M333.31,280.25l-1.57,2.65a9.28,9.28,0,0,0-5.23-1.74c-2.21,0-3.5,1-3.5,2.78,0,2.14,2.08,2.93,4.44,3.84,3,1.1,6.37,2.43,6.37,6.87s-2.93,6.81-7.91,6.81a12.16,12.16,0,0,1-7.37-2.21l1.19-2.74a10.15,10.15,0,0,0,6.31,1.92c2.52,0,4-1.13,4-3.09,0-2.36-2.14-3.18-4.48-4.06-3-1.1-6.33-2.36-6.33-6.84,0-4,2.71-6.3,7.28-6.3A12,12,0,0,1,333.31,280.25Z"/><path class="cls-1" d="M198.44,66.83c-5.55,0-8.81-3.86-8.81-10.42S192.81,46,198.16,46a7.12,7.12,0,0,1,6.56,3.58l-3.07,1.27a3.91,3.91,0,0,0-3.49-2.14c-3.21,0-5.1,2.87-5.1,7.71s2.11,7.72,5.66,7.72a8.29,8.29,0,0,0,5.21-1.75l1.35,2.34A11,11,0,0,1,198.44,66.83Z"/><path class="cls-1" d="M220.54,63.93v2.62H208.27V46.28h12v2.61h-8.64v5.92h7.66v2.62h-7.66v6.5Z"/><path class="cls-1" d="M237.86,66.55l-10.53-14.5.14,14.5h-3.19V46.42a2.17,2.17,0,0,1,1.32-.43,2.5,2.5,0,0,1,2.08,1.33l9.72,13.43-.15-14.47h3.19V66.55Z"/><path class="cls-1" d="M257.53,48.89h-5.37V66.55h-3.32V48.89h-5.38V46.28h14.07Z"/><path class="cls-1" d="M275.47,66.41a4.76,4.76,0,0,1-1.92.42c-1.09,0-1.71-.76-1.83-2l-.28-2.93c-.22-2.36-1.52-3.74-4-3.74H263.9v8.36h-3.32V46.28c2-.17,4.56-.29,6-.29,5.12,0,8.17,2.17,8.17,5.86a5.15,5.15,0,0,1-3.47,5,5.62,5.62,0,0,1,3.47,4.95l.28,2.87A6,6,0,0,0,275.47,66.41ZM263.9,48.67v6.9h2.67c3.1,0,4.76-1.3,4.76-3.49s-1.66-3.47-4.73-3.47C265.78,48.61,264.85,48.64,263.9,48.67Z"/><path class="cls-1" d="M277.86,56.41c0-6.56,3.49-10.42,9.41-10.42s9.4,3.86,9.4,10.42-3.49,10.42-9.4,10.42S277.86,63,277.86,56.41Zm15.35,0c0-4.84-2.23-7.71-6-7.71s-6,2.87-6,7.71,2.22,7.72,6,7.72S293.21,61.25,293.21,56.41Z"/><path class="cls-1" d="M322.12,46.56l-7.18,20h-3.52l-7.23-20A2.76,2.76,0,0,1,305.9,46a2.08,2.08,0,0,1,2.26,1.69l4.19,12.17,1.1,3.57,1.07-3.66L319.05,46Z"/><path class="cls-1" d="M337.21,63.93v2.62H324.94V46.28h12v2.61h-8.64v5.92h7.66v2.62h-7.66v6.5Z"/><path class="cls-1" d="M353.26,48.89h-5.38V66.55h-3.32V48.89h-5.38V46.28h14.08Z"/><path class="cls-1" d="M368.57,63.93v2.62H356.3V46.28h12v2.61h-8.65v5.92h7.66v2.62h-7.66v6.5Z"/><path class="cls-1" d="M387.21,66.41a4.68,4.68,0,0,1-1.91.42c-1.1,0-1.72-.76-1.83-2l-.28-2.93c-.23-2.36-1.52-3.74-4-3.74h-3.55v8.36h-3.32V46.28c2-.17,4.56-.29,6-.29,5.13,0,8.17,2.17,8.17,5.86a5.16,5.16,0,0,1-3.46,5,5.63,5.63,0,0,1,3.46,4.95l.28,2.87A6.74,6.74,0,0,0,387.21,66.41ZM375.64,48.67v6.9h2.68c3.09,0,4.75-1.3,4.75-3.49s-1.66-3.47-4.73-3.47C377.53,48.61,376.6,48.64,375.64,48.67Z"/><path class="cls-1" d="M390.7,66.55V46.42a3.06,3.06,0,0,1,1.5-.43A1.79,1.79,0,0,1,394,48V66.55Z"/><path class="cls-1" d="M412.33,66.55,401.8,52.05l.14,14.5h-3.18V46.42a2.17,2.17,0,0,1,1.32-.43,2.49,2.49,0,0,1,2.08,1.33l9.72,13.43-.14-14.47h3.18V66.55Z"/><path class="cls-1" d="M430.49,61.76h-8.08l-1.61,4.79h-3.27l7.27-20.13a4.24,4.24,0,0,1,1.8-.43,2.41,2.41,0,0,1,2.34,1.86l6.73,18.7h-3.58Zm-.88-2.62-3.18-9.46-3.15,9.46Zm-4.36-15.2-.9-1.61,4.81-3.63,1.64,2.68Z"/><path class="cls-1" d="M453.18,66.41a4.76,4.76,0,0,1-1.92.42c-1.1,0-1.71-.76-1.83-2l-.28-2.93c-.22-2.36-1.52-3.74-4-3.74h-3.54v8.36h-3.33V46.28c2-.17,4.57-.29,6-.29,5.12,0,8.16,2.17,8.16,5.86a5.15,5.15,0,0,1-3.46,5,5.61,5.61,0,0,1,3.46,4.95l.29,2.87A6,6,0,0,0,453.18,66.41ZM441.61,48.67v6.9h2.67c3.1,0,4.76-1.3,4.76-3.49s-1.66-3.47-4.73-3.47C443.49,48.61,442.56,48.64,441.61,48.67Z"/><path class="cls-1" d="M456.67,66.55V46.42a3,3,0,0,1,1.49-.43A1.79,1.79,0,0,1,460,48V66.55Z"/><path class="cls-1" d="M463.71,56.41c0-6.56,3.49-10.42,9.4-10.42s9.4,3.86,9.4,10.42-3.49,10.42-9.4,10.42S463.71,63,463.71,56.41Zm15.34,0c0-4.84-2.22-7.71-6-7.71s-6,2.87-6,7.71,2.23,7.72,6,7.72S479.05,61.25,479.05,56.41Z"/><path class="cls-1" d="M162.71,91.35V85.1L136.89,59.28a4.26,4.26,0,0,0-7.26,3V79.71a117.91,117.91,0,0,0-24.33-2.38c-6.93,0-16,.22-25.76.64V62.28a4.25,4.25,0,0,0-7.26-3l-25.8,25.8V244.56a22.7,22.7,0,0,0,22.67,22.67h10.4V216.05a19.84,19.84,0,0,1,20.07-19.84c1.83,0,3.65,0,5.42,0,46,0,73.43-22.47,73.43-60.1,0-14.61-4.22-26.93-12.54-36.63A13.12,13.12,0,0,1,162.71,91.35ZM124.92,130a57,57,0,0,1-16.46,28.43,5.6,5.6,0,0,1-7.7,0A58.14,58.14,0,0,1,84.32,130a5.67,5.67,0,0,1,4-6.74A61.17,61.17,0,0,1,104.14,121h.44a61.05,61.05,0,0,1,16.29,2.21A5.64,5.64,0,0,1,124.92,130Z"/><path class="cls-1" d="M47.2,58a4.23,4.23,0,0,0-4.06,3L35.86,84.12A2.81,2.81,0,0,0,37.1,87.4a2.89,2.89,0,0,0,1.48.42,2.8,2.8,0,0,0,2-.84L69.53,58Z"/><path class="cls-1" d="M170.6,87.82a2.89,2.89,0,0,0,1.48-.42,2.81,2.81,0,0,0,1.23-3.28L166,61A4.23,4.23,0,0,0,162,58H139.65L168.6,87A2.84,2.84,0,0,0,170.6,87.82Z"/><path class="cls-1" d="M587.85,223.21c-.69-17.66-16.29-43.84-47.61-44-21.78-.07-32.56,11.59-45.1,25.12-5.81,6.26-12.4,13.36-20.74,20-14.29,11.42-31.25,18-46.53,18-31.36,0-50.09-25.72-50.09-68.8,0-21.36,4.15-38.95,12-50.86s19-17.94,33-17.94a32.49,32.49,0,0,1,22.82,8.85,22.83,22.83,0,0,0,24.19,4.46l14.76-6.1-.85-1.41c-13.46-22.36-33.39-33.23-60.92-33.23-45.32,0-73.91,30.16-78.42,81.49h-9.67V100A22.7,22.7,0,0,0,312,77.33H301.6v43.56c-.27,0-.53,0-.79,0h-8.5v38h-19.8a18.19,18.19,0,0,0-17,11.88H241.12a19.86,19.86,0,0,1-19.84-19.84V100A22.7,22.7,0,0,0,198.6,77.33H188.21V244.56a22.7,22.7,0,0,0,22.68,22.67h10.39V216.06a19.84,19.84,0,0,1,19.84-19.84h51.2v9.06a18.18,18.18,0,0,0,9.28,15.83v23.45a22.7,22.7,0,0,0,22.67,22.67h10.4V185.49h4.12a18,18,0,0,0,5.27-.79c1.66,24.63,8.88,45.08,21.14,59.58,14.13,16.69,34.92,25.52,60.12,25.52s42.5-10.35,59.35-21.87a203.31,203.31,0,0,0,17.12-13.56C516,222.26,528.28,211.8,545.39,215c14,2.65,28.18,13.86,28.18,32.93a33.07,33.07,0,0,1-2,11.39l-2.21,6.08,4.64-4.69C583.77,251,588.43,238.34,587.85,223.21Zm-233.73-55.9a15.36,15.36,0,0,1-15.34,15.34H316.15v38h-5.66a15.36,15.36,0,0,1-15.34-15.34V182.65h-38V177a15.36,15.36,0,0,1,15.34-15.34h22.63v-38h5.66A15.36,15.36,0,0,1,316.15,139v22.64h38Z"/></g></svg>